# xmcd
#
# Track frame offsets:
#	150
#	11602
#	27407
#	45562
#	59822
#	74027
#	88740
#	102807
#	122937
#	136667
#
# Disc length: 1975
#
# Revision: 1
# Processed by: cddbd v1.5.1PL0 Copyright (c) Steve Scherf et al.
# Submitted via: VisiTrax 2.9.5.180 - For more info visit www.synapsa.com
# Normalized: r0:DSETVAR1
#
DISCID=8e07b50a
DTITLE=Various Artist - Hot Country Hits
DYEAR=1993
DGENRE=Country
TTITLE0=Highway 101 - Bing Bang Boom
TTITLE1=Doug Stone - A Jukebox With A Country Song
TTITLE2=Pirates Of The Mississippi - Feed Jake
TTITLE3=Suzy Bogguss - Drive South
TTITLE4=Billy Dean - Billy The Kid
TTITLE5=Marty Stuart - Tempted
TTITLE6=Mark Chesnutt - Bubba Shot The Jokebox
TTITLE7=Hal Ketchum - Past The Point Of Rescue
TTITLE8=Tanya Tucker - If Your Heart Ain't Busy Tonight
TTITLE9=Chris LeDoux Feat. Garth Brooks - Whatcha Gonna Do With A Cowboy
EXTD=
EXTT0=
EXTT1=
EXTT2=
EXTT3=
EXTT4=
EXTT5=
EXTT6=
EXTT7=
EXTT8=
EXTT9=
PLAYORDER=
